<svg xmlns="http://www.w3.org/2000/svg" width="15.586" height="15.586" viewBox="0 0 15.586 15.586">
  <path id="date" d="M14.993,3.529H13.464V2.764a.764.764,0,1,0-1.529,0v.764H7.35V2.764a.764.764,0,1,0-1.529,0v.764H4.293A2.293,2.293,0,0,0,2,5.821v9.172a2.293,2.293,0,0,0,2.293,2.293h10.7a2.293,2.293,0,0,0,2.293-2.293V5.821A2.293,2.293,0,0,0,14.993,3.529Zm.764,11.464a.764.764,0,0,1-.764.764H4.293a.764.764,0,0,1-.764-.764V9.643H15.757Zm0-6.879H3.529V5.821a.764.764,0,0,1,.764-.764H5.821v.764a.764.764,0,0,0,1.529,0V5.057h4.586v.764a.764.764,0,1,0,1.529,0V5.057h1.529a.764.764,0,0,1,.764.764Z" transform="translate(-1.85 -1.85)" stroke="#000" stroke-width="0.3"/>
</svg>
