<svg xmlns="http://www.w3.org/2000/svg" width="32" height="32" viewBox="0 0 32 32">
  <g id="Group_22349" data-name="Group 22349" transform="translate(-0.164)">
    <g id="Ellipse_1664" data-name="Ellipse 1664" transform="translate(0.164)" fill="#fff" stroke="#ffe2e2" stroke-width="2">
      <circle cx="16" cy="16" r="16" stroke="none"/>
      <circle cx="16" cy="16" r="15" fill="none"/>
    </g>
    <path id="Icon_awesome-ambulance" data-name="Icon awesome-ambulance" d="M16.141,9.1h-.414v-2.8a1.242,1.242,0,0,0-.365-.877L12.778,2.848a1.242,1.242,0,0,0-.877-.365H10.76V1.242A1.242,1.242,0,0,0,9.519,0H1.242A1.242,1.242,0,0,0,0,1.242V9.519A1.242,1.242,0,0,0,1.242,10.76h.414a2.483,2.483,0,0,0,4.966,0H9.933a2.483,2.483,0,1,0,4.966,0h1.242a.415.415,0,0,0,.414-.414V9.519A.415.415,0,0,0,16.141,9.1Zm-12,2.9A1.242,1.242,0,1,1,5.38,10.76,1.242,1.242,0,0,1,4.139,12ZM7.863,5.587a.208.208,0,0,1-.207.207H6.208V7.243A.208.208,0,0,1,6,7.45H4.759a.208.208,0,0,1-.207-.207V5.794H3.1A.208.208,0,0,1,2.9,5.587V4.346A.208.208,0,0,1,3.1,4.139H4.552V2.69a.208.208,0,0,1,.207-.207H6a.208.208,0,0,1,.207.207V4.139H7.656a.208.208,0,0,1,.207.207ZM12.416,12a1.242,1.242,0,1,1,1.242-1.242A1.242,1.242,0,0,1,12.416,12Zm2.069-5.38H10.76v-2.9H11.9l2.584,2.584Z" transform="translate(8.062 9.196)" fill="#ff8186"/>
  </g>
</svg>
