<?xml version="1.0" encoding="utf-8"?>
<!-- Generator: Adobe Illustrator 27.3.1, SVG Export Plug-In . SVG Version: 6.00 Build 0)  -->
<svg version="1.1" id="Cardiology" xmlns="http://www.w3.org/2000/svg" xmlns:xlink="http://www.w3.org/1999/xlink" x="0px" y="0px"
	 viewBox="0 0 24 24" style="enable-background:new 0 0 24 24;" xml:space="preserve">
<style type="text/css">
	.st0{opacity:0.15;fill:#9473A5;}
	.st1{fill:none;}
	.st2{opacity:0.6;fill:#9473A5;}
	.st3{fill:#9473A5;}
</style>
<circle id="Ellipse_698" class="st0" cx="10" cy="10" r="10"/>
<g id="Group_1280" transform="translate(0 -0.473)">
	<path id="Path_2785" class="st1" d="M15.5,8.8c-0.1-0.2-0.3-0.4-0.5-0.3c-0.2,0-0.4,0.2-0.5,0.4L13,14.5l-1.2-4.2
		c-0.1-0.2-0.3-0.4-0.5-0.4s-0.4,0.2-0.5,0.4l-0.6,2.2H7.4c-0.3,0-0.5,0.2-0.5,0.5s0.2,0.5,0.5,0.5h3.3c0.2,0,0.4-0.2,0.5-0.4
		l0.2-0.8l1.2,4.2c0.1,0.2,0.3,0.4,0.5,0.4l0,0c0.2,0,0.4-0.2,0.5-0.4l1.6-5.9l0.9,2.5c0.1,0.2,0.3,0.3,0.5,0.3h2
		c0.2-0.3,0.4-0.7,0.5-1h-2.2L15.5,8.8z"/>
	<path id="Path_2786" class="st2" d="M19.9,12.4L19.9,12.4z"/>
	<path id="Path_2787" class="st2" d="M17.5,14.7c0.4-0.4,0.7-0.8,1-1.3h-2c-0.2,0-0.4-0.1-0.5-0.3l-0.9-2.5l-1.6,5.9
		c-0.1,0.2-0.3,0.4-0.5,0.4l0,0c-0.2,0-0.4-0.2-0.5-0.4l-1.2-4.2l-0.2,0.8c-0.1,0.2-0.3,0.4-0.5,0.4H7.4c-0.3,0-0.5-0.2-0.5-0.5
		s0.2-0.5,0.5-0.5h2.9l0.6-2.2c0.1-0.2,0.3-0.4,0.5-0.4s0.4,0.1,0.5,0.4l1.2,4.2l1.5-5.6c0.1-0.2,0.2-0.4,0.5-0.4
		c0.2,0,0.4,0.1,0.5,0.3l1.3,3.6h2.2c0.2-0.5,0.4-1.1,0.5-1.6c0.3-2.3-1-5.5-3.6-6.3c-1.6-0.1-3.1,0.6-4,1.9
		c-0.2,0.3-0.4,0.5-0.6,0.9c-0.1-0.2-0.3-0.4-0.4-0.5C9.9,5.1,7.9,4.2,6,4.6c-0.2,0-0.3,0.1-0.5,0.1C4.6,5,3.8,5.5,3.2,6.3
		C3,6.4,2.9,6.6,2.8,6.8C2.1,8,1.9,9.3,2.1,10.7c0.1,0.7,0.3,1.3,0.6,1.9c0.5,1,1.2,1.9,2,2.7c0.8,0.8,1.7,1.6,2.5,2.3
		c1.1,1,2.3,2,3.4,2.9c0.3,0.3,0.7,0.5,1.1,0.1c0.5-0.5,1-0.9,1.6-1.4c-0.5,0.4-0.9,0.8-1.4,1.3C13.8,18.6,15.6,16.5,17.5,14.7z"/>
	<path id="Path_2788" class="st3" d="M19.9,12.4c0.1-0.3,0.2-0.6,0.3-0.9C20.2,11.8,20.1,12.1,19.9,12.4z"/>
	<path id="Path_2789" class="st3" d="M20.5,10.6c0.4-2.6-1.1-5-3.5-5.9c-0.2-0.1-0.4-0.1-0.6-0.1c-0.1,0-0.1,0-0.2,0s-0.1,0-0.2,0
		c2.6,0.8,3.9,3.9,3.6,6.3c-0.1,0.6-0.2,1.1-0.5,1.6H20c0.1-0.3,0.2-0.6,0.3-0.9C20.4,11.2,20.4,10.9,20.5,10.6z"/>
	<g id="Group_1279">
		<path id="Path_2790" class="st3" d="M5.5,4.7c0.7-0.2,1.4-0.3,2.1-0.2c-0.5,0-1,0.2-1.4,0.6C4.8,6.2,4,8,4.1,9.8
			c0.3,1.8,1,3.4,2,4.9c1.2,2.1,2.8,4.1,4.5,5.8c-2.3-1.8-4.4-3.7-6.4-5.8c-1.1-1.1-1.9-2.6-2.1-4.1c-0.3-2,0.5-4,2.1-5.2
			C4.6,5.1,5.1,4.8,5.5,4.7z"/>
	</g>
	<path id="Path_2791" class="st3" d="M21.5,13.4h-3c-0.3,0.5-0.6,0.9-1,1.3c-1.9,1.8-3.7,4-5.6,5.8c0.5-0.4,0.9-0.8,1.4-1.3
		c1.7-1.5,3.4-3.1,5.1-4.7l0.1-0.1h3c0.3,0,0.5-0.2,0.5-0.5S21.8,13.4,21.5,13.4z"/>
	<circle id="Ellipse_517" class="st3" cx="6.5" cy="7.6" r="0.9"/>
	<circle id="Ellipse_518" class="st3" cx="9" cy="8.6" r="0.4"/>
</g>
<rect id="Rectangle_1253" class="st1" width="24" height="24"/>
</svg>
