<?xml version="1.0" encoding="utf-8"?>
<!-- Generator: Adobe Illustrator 27.3.1, SVG Export Plug-In . SVG Version: 6.00 Build 0)  -->
<svg version="1.1" id="Gastroenterology" xmlns="http://www.w3.org/2000/svg" xmlns:xlink="http://www.w3.org/1999/xlink" x="0px"
	 y="0px" viewBox="0 0 24 24" style="enable-background:new 0 0 24 24;" xml:space="preserve">
<style type="text/css">
	.st0{fill:none;}
	.st1{opacity:0.15;fill:#9473A5;}
	.st2{fill:#9473A5;}
	.st3{fill:#AA87B9;}
	.st4{opacity:0.5;fill:#FFFFFF;}
	.st5{fill:#825A91;}
</style>
<rect id="Rectangle_1260" class="st0" width="24" height="24"/>
<circle id="Ellipse_705" class="st1" cx="10" cy="10" r="10"/>
<path id="Path_2958" class="st2" d="M4.7,15.3c-0.4,0-0.7,0.1-1.1,0.2c0.1,0.3,0.2,0.6,0.3,0.9c0.3,0.6-0.6,0.9-0.7,1.5s0,2.5,0,2.5
	s0.2,1-1.2,0.8v0.1c0,0-0.2,0.6,1,0.6s1-0.7,1-0.7v-3.1c0,0,0.1-0.9,0.9-0.9L5,15.8L4.7,15.3z"/>
<path id="Path_2959" class="st3" d="M3.3,20.4c0,0-0.1-1.9,0-2.5s1-0.9,0.7-1.5c-0.2-0.3-0.3-0.6-0.3-0.9c-1,0.3-1.6,1.1-1.6,2.1
	v3.6C3.4,21.5,3.3,20.4,3.3,20.4z"/>
<path id="Path_2960" class="st2" d="M11.3,5.8c0,0-0.3,0-0.7-0.4C10.4,6,10.6,7,9.7,6.9c-1.2-0.1-2.1-2.2-2-3.4
	c0-0.8,0.7-0.9,1.1-0.9C8.4,2.1,7.8,1.9,7.3,2.2C6.6,2.5,6.2,3.2,6,3.9C5.7,5,6.6,5.8,7.3,6.5c0.6,0.8,1.5,1.3,2.4,1.7
	c0.5,0.2,1.1,0.3,1.6,0.3l0.5-2.2L11.3,5.8z"/>
<path id="Path_2961" class="st3" d="M7.6,3.5c-0.1,1.2,0.8,3.3,2,3.4c0.9,0.1,0.7-0.9,1-1.4C10,4.8,9.4,4,9.1,3.1
	C9,2.9,8.9,2.7,8.7,2.6C8.3,2.6,7.7,2.7,7.6,3.5z"/>
<path id="Path_2962" class="st3" d="M7.7,17.5c1.7,0.5,3.5,0.6,5.2,0.1c1.8-0.5,3.5-1.5,4.7-3c1.3-1.7,1.1-3.8,1-6
	c-0.1-0.9-0.1-2.1,0.7-2.6c0.6-0.4,1.3-0.4,1.9-0.1C21.1,5.9,21,5.8,21,5.7c-1.8-3-7-4-9.1-0.9c-0.8,1.2-1,2.7-0.5,4
	c0,0.1,0.1,0.1,0.1,0.2c1.3,0.4,2,1.7,1.7,3c-0.5,2-2.4,2.2-3.9,1.8c-1,0-2.1-0.2-3-0.1C4.2,14,4.4,16.4,5,17.7
	C4.7,16.3,7.2,17.3,7.7,17.5z"/>
<path id="Path_2963" class="st4" d="M12.6,5.2c0.1-0.1,0.2-0.2,0.3-0.4c0.7-1,2.1-1.2,3.1-0.5c0.5,0.4,0.7,1,0.5,1.6
	c-0.3,0.6-1,1-1.4,1.6c-0.5,0.6-1,2-2,1.6C11.4,8.5,11.9,6.3,12.6,5.2z"/>
<path id="Path_2964" class="st4" d="M16.6,4.4c0-0.5,0.8-0.5,1.1-0.4c0.4,0.1,0.7,0.4,0.8,0.8c0.1,0.5-0.4,0.5-0.7,0.5
	c-0.5,0-0.9-0.2-1.2-0.7C16.6,4.5,16.6,4.4,16.6,4.4z"/>
<path id="Path_2965" class="st2" d="M16.4,19.4c3.5-1.8,5.7-5.5,5.6-9.5c0-1.4-0.3-2.7-0.8-3.9c-0.6-0.3-1.3-0.3-1.9,0.1
	c-0.9,0.6-0.8,1.7-0.7,2.6c0.2,2.2,0.4,4.2-1,6c-1.2,1.5-2.8,2.5-4.7,3c-1.7,0.4-3.5,0.4-5.2-0.1c-0.5-0.2-3-1.2-2.7,0.2
	C6.7,21.9,13.2,21.1,16.4,19.4z"/>
<path id="Path_2966" class="st2" d="M13,12.1c0.4-1.3-0.4-2.7-1.7-3c0.2,0.4,0.4,0.8,0.5,1.2c0.2,0.4,0.2,0.8,0.1,1.2
	c-0.2,0.8-0.7,1.6-1.4,2c0,0-0.1,0.1-0.1,0.1c-0.4,0.2-0.9,0.3-1.3,0.3C10.7,14.3,12.6,14,13,12.1z"/>
<ellipse id="Ellipse_553" transform="matrix(0.6159 -0.7878 0.7878 0.6159 -4.681078e-02 7.2439)" class="st3" cx="7.4" cy="3.7" rx="1.4" ry="0.9"/>
<ellipse id="Ellipse_554" transform="matrix(0.6164 -0.7875 0.7875 0.6164 -1.585070e-02 7.2224)" class="st5" cx="7.4" cy="3.6" rx="1.1" ry="0.6"/>
<ellipse id="Ellipse_555" class="st3" cx="3" cy="21.4" rx="0.9" ry="0.4"/>
<ellipse id="Ellipse_556" class="st5" cx="3" cy="21.4" rx="0.6" ry="0.3"/>
<path id="Path_2967" class="st0" d="M6.2,15h0.1C6.3,15,6.2,15,6.2,15z"/>
</svg>
