<?xml version="1.0" encoding="utf-8"?>
<!-- Generator: Adobe Illustrator 27.3.1, SVG Export Plug-In . SVG Version: 6.00 Build 0)  -->
<svg version="1.1" id="Haematology" xmlns="http://www.w3.org/2000/svg" xmlns:xlink="http://www.w3.org/1999/xlink" x="0px"
	 y="0px" viewBox="0 0 24 24" style="enable-background:new 0 0 24 24;" xml:space="preserve">
<style type="text/css">
	.st0{fill:none;}
	.st1{opacity:0.15;fill:#9473A5;}
	.st2{fill:#9473A5;}
	.st3{fill:#FFFFFF;}
	.st4{opacity:0.5;fill:#9473A5;}
	.st5{fill:#A382B6;}
	.st6{opacity:0.3;fill:#9473A5;}
	.st7{opacity:0.6;fill:#9473A5;}
</style>
<rect id="Rectangle_1268" class="st0" width="24" height="24"/>
<circle id="Ellipse_715" class="st1" cx="10" cy="10" r="10"/>
<path id="Path_970" class="st2" d="M15.1,18.9c-1.4,2-3.7,3.1-6.1,3.1c-3.9-0.1-7.1-3.3-7-7.3c0,0,0,0,0,0c0-1.2,0.4-2.4,1-3.4
	l5.3-8.9c0.2-0.4,0.7-0.6,1.2-0.4C9.7,2.1,9.9,2.3,10,2.5l5.3,8.9C16.8,13.7,16.7,16.7,15.1,18.9z"/>
<path id="Path_973" class="st3" d="M15.2,18.9c-1.1,0.6-2.3,1-3.6,1c-4,0.1-7.3-3-7.4-6.9c0-1.3,0.3-2.6,1-3.7l4.4-7.3
	c0.2,0.1,0.4,0.2,0.5,0.4l5.4,8.9C16.9,13.7,16.8,16.7,15.2,18.9z"/>
<path id="Path_973_00000109029995601232399020000011339441402520896426_" class="st4" d="M15.2,18.9c-1.1,0.6-2.3,1-3.6,1
	c-4,0.1-7.3-3-7.4-6.9c0-1.3,0.3-2.6,1-3.7l4.4-7.3c0.2,0.1,0.4,0.2,0.5,0.4l5.4,8.9C16.9,13.7,16.8,16.7,15.2,18.9z"/>
<path id="Path_5516" class="st3" d="M6,10.6c-0.1-0.1-0.3-0.1-0.4-0.1c0,0,0,0-0.1,0.1c-0.6,1-0.8,2.2-0.4,3.3
	c0,0.1,0.2,0.2,0.3,0.2c0.1,0,0.3-0.1,0.2-0.3c-0.3-1-0.2-2.1,0.3-2.9C6.1,10.9,6.1,10.7,6,10.6L6,10.6z"/>
<ellipse id="Ellipse_656" class="st3" cx="11.9" cy="7.9" rx="0.6" ry="0.6"/>
<ellipse id="Ellipse_657" class="st3" cx="9.7" cy="6.8" rx="0.9" ry="0.9"/>
<ellipse id="Ellipse_658" class="st5" cx="14.6" cy="15.7" rx="6.5" ry="6.3"/>
<path id="Path_5529" class="st3" d="M15.2,9.3c3.5-0.1,6.5,2.8,6.5,6.3c-0.1,3.5-3,6.4-6.5,6.3c-3.5,0.1-6.5-2.8-6.5-6.3
	C8.8,12.1,11.7,9.3,15.2,9.3z"/>
<path id="Path_5529_00000112624916902485023740000016245076895791444125_" class="st6" d="M15.2,9.3c3.5-0.1,6.5,2.8,6.5,6.3
	c-0.1,3.5-3,6.4-6.5,6.3c-3.5,0.1-6.5-2.8-6.5-6.3C8.8,12.1,11.7,9.3,15.2,9.3z"/>
<path id="Path_5517" class="st3" d="M21.2,10.5c0.5,0.9-0.3,2.2-1.8,3.1c-0.5,0.3-1,0.5-1.6,0.6l0,0c-0.9,0.2-1.7-0.1-2-0.6
	c-0.5-0.9,0.3-2.2,1.8-3.1C19.1,9.6,20.7,9.7,21.2,10.5z"/>
<g id="Group_4334" transform="translate(5.483 2.256) rotate(-21)">
	<path id="Path_5518" class="st2" d="M8.6,13.7c-0.7,0.2-1.5,0-2.1-0.6c0,0.1,0,0.2,0,0.3c0.1,0.6,1.1,1,2.2,0.9s1.9-0.8,1.8-1.4
		c0-0.1,0-0.2-0.1-0.3C10.1,13.3,9.4,13.7,8.6,13.7z"/>
	<path id="Path_5519" class="st2" d="M7.4,13.7l-0.1,0.5c0,0-0.9,0.7-0.1,1.4c-0.9-0.2-1.6-0.7-1.7-1.3c-0.1-1,1.1-2,2.8-2.2
		C8.4,12,6.7,13,7.4,13.7z"/>
</g>
<path id="Path_5520" class="st3" d="M21.9,17.1c0,0.9-1.2,1.6-2.7,1.6c-0.5,0-1-0.1-1.4-0.2l0,0c-0.8-0.3-1.3-0.8-1.3-1.3
	c0-0.9,1.2-1.6,2.7-1.6S21.9,16.2,21.9,17.1z"/>
<g id="Group_4335" transform="translate(6.921 6.343)">
	<path id="Path_5521" class="st2" d="M12.2,10.8c-0.7,0.1-1.3-0.2-1.7-0.7c0,0.1-0.1,0.2-0.1,0.3c0,0.6,0.8,1,1.8,1s1.8-0.5,1.8-1.1
		c0-0.1,0-0.2-0.1-0.3C13.5,10.5,12.9,10.8,12.2,10.8z"/>
	<path id="Path_5522" class="st2" d="M11.1,10.6L11,11c0,0-0.9,0.6-0.2,1.2c-0.8-0.3-1.3-0.8-1.3-1.3c0-0.9,1.2-1.6,2.7-1.6
		C12.2,9.2,10.6,9.9,11.1,10.6z"/>
</g>
<path id="Path_5523" class="st3" d="M16.1,20.2c-0.7,0.8-2.3,0.5-3.6-0.5c-0.4-0.3-0.8-0.7-1.1-1.2l0,0c-0.5-0.6-0.5-1.4-0.1-2.1
	c0.7-0.8,2.3-0.5,3.6,0.5S16.8,19.4,16.1,20.2z"/>
<g id="Group_4336" transform="translate(1.586 6.668)">
	<path id="Path_5524" class="st2" d="M12.2,11.5c-0.6-0.4-1-1.1-0.9-1.9c-0.1,0-0.2,0.1-0.2,0.2c-0.4,0.5-0.1,1.5,0.8,2.1
		s1.9,0.8,2.3,0.3c0.1-0.1,0.1-0.2,0.1-0.3C13.5,12.3,12.7,12.1,12.2,11.5z"/>
	<path id="Path_5525" class="st2" d="M11.4,10.6l-0.5,0.3c0,0-1.2-0.1-1.1,0.9c-0.5-0.6-0.5-1.4-0.1-2.1c0.7-0.8,2.3-0.5,3.6,0.5
		C13.3,10.2,11.5,9.7,11.4,10.6z"/>
</g>
<path id="Path_5526" class="st3" d="M15.5,14.3c-0.2,1-1.8,1.5-3.4,1.1c-0.5-0.1-1.1-0.3-1.5-0.6l0,0c-0.8-0.5-1.2-1.2-1.1-1.8
	c0.2-1,1.8-1.5,3.4-1.1S15.8,13.4,15.5,14.3z"/>
<path id="Path_5517_00000138536140432529907550000013110902682820879011_" class="st7" d="M21.2,10.5c0.5,0.9-0.3,2.2-1.8,3.1
	c-0.5,0.3-1,0.5-1.6,0.6l0,0c-0.9,0.2-1.7-0.1-2-0.6c-0.5-0.9,0.3-2.2,1.8-3.1C19.1,9.6,20.7,9.7,21.2,10.5z"/>
<path id="Path_5520_00000048477513662999373350000017785184394551775114_" class="st7" d="M21.9,17.1c0,0.9-1.2,1.6-2.7,1.6
	c-0.5,0-1-0.1-1.4-0.2l0,0c-0.8-0.3-1.3-0.8-1.3-1.3c0-0.9,1.2-1.6,2.7-1.6S21.9,16.2,21.9,17.1z"/>
<path id="Path_5523_00000148633790586076105360000010339964846210205314_" class="st7" d="M16.1,20.2c-0.7,0.8-2.3,0.5-3.6-0.5
	c-0.4-0.3-0.8-0.7-1.1-1.2l0,0c-0.5-0.6-0.5-1.4-0.1-2.1c0.7-0.8,2.3-0.5,3.6,0.5S16.8,19.4,16.1,20.2z"/>
<path id="Path_5526_00000011012378241730155400000010591915908406696629_" class="st7" d="M15.5,14.3c-0.2,1-1.8,1.5-3.4,1.1
	c-0.5-0.1-1.1-0.3-1.5-0.6l0,0c-0.8-0.5-1.2-1.2-1.1-1.8c0.2-1,1.8-1.5,3.4-1.1S15.8,13.4,15.5,14.3z"/>
<g id="Group_4337" transform="translate(0 2.574)">
	<path id="Path_5527" class="st2" d="M12.5,11c-0.8-0.1-1.4-0.6-1.7-1.3c-0.1,0.1-0.1,0.2-0.1,0.3c-0.2,0.6,0.6,1.3,1.7,1.6
		s2.1-0.1,2.2-0.7c0-0.1,0-0.2,0-0.3C14.1,11.1,13.3,11.3,12.5,11z"/>
	<path id="Path_5528" class="st2" d="M11.4,10.5L11.1,11c0,0-1.1,0.4-0.6,1.2c-0.8-0.5-1.2-1.2-1.1-1.8c0.2-1,1.8-1.5,3.4-1.1
		C12.9,9.3,11,9.7,11.4,10.5z"/>
</g>
</svg>
