<?xml version="1.0" encoding="utf-8"?>
<!-- Generator: Adobe Illustrator 27.3.1, SVG Export Plug-In . SVG Version: 6.00 Build 0)  -->
<svg version="1.1" id="Urology" xmlns="http://www.w3.org/2000/svg" xmlns:xlink="http://www.w3.org/1999/xlink" x="0px" y="0px"
	 viewBox="0 0 24 24" style="enable-background:new 0 0 24 24;" xml:space="preserve">
<style type="text/css">
	.st0{opacity:0.15;fill:#9473A5;enable-background:new    ;}
	.st1{opacity:0.7;fill:#9473A5;enable-background:new    ;}
	.st2{fill:#9473A5;}
	.st3{opacity:0.4;fill:#9473A5;enable-background:new    ;}
	.st4{fill:none;}
</style>
<circle id="Ellipse_742" class="st0" cx="10" cy="10" r="10"/>
<path id="Path_2476" class="st1" d="M7.8,13.8c0,0.1,0.1,0.3,0.1,0.4c0,0.1,0,0.3,0,0.4c-0.3,0.5-0.8,0-0.9-0.4
	c-0.1-0.5,0.3-0.9,0.3-1.3c0-0.4-0.5-0.5-0.8-0.4c-0.2,0.1-0.4,0.2-0.5,0.3S5.7,13,5.5,12.9c-0.1,0-0.1-0.1-0.1-0.2
	c-0.1-0.2-0.1-0.4,0-0.6c0.2-0.3,0.4-0.4,0.7-0.4c0.3,0,0.8,0,0.9-0.4c0.1-0.2,0-0.4-0.2-0.4l0,0H6.7c-0.4,0-1.1,0.5-1.3,0
	c-0.2-0.2-0.2-0.4-0.2-0.5c0-0.2,0.1-0.3,0.2-0.4c0.3-0.2,0.7,0.1,1,0.1c0.2,0,0.3,0,0.5,0c0.3,0,0.5-0.2,0.6-0.5l0,0
	c0-0.2-0.1-0.4-0.1-0.6c-0.1-0.4,0-0.7,0.5-0.7c0.4,0,0.7,0.2,0.7,0.6c0,0.1,0,0.3,0,0.4c0,0.1,0,0.1,0,0.2l0,0
	c0.6-1.2,0.2-2.7-1-3.5C6.3,5.2,4.7,5.5,3.7,6.6c0,0.1-0.1,0.1-0.1,0.2c-1,1.4-1.6,3-1.6,4.8c0,1.7,0.6,3.4,1.6,4.7
	c0.9,1.3,2.6,1.6,4,0.8c1.3-0.8,1.7-2.5,0.8-3.8l0,0c0,0,0,0,0-0.1l0,0l0,0l0,0C7.9,13.2,7.7,13.4,7.8,13.8z"/>
<path id="Path_2478" class="st2" d="M4.8,16.3c-1-1.4-1.6-3-1.6-4.7c0-1,0.2-2,0.6-2.9c0.2-0.5,0.5-1,0.8-1.5
	c0.3-0.4,0.6-0.7,0.9-0.9c0.2-0.2,0.8-0.6,1.1-0.6C6,5.5,5.3,5.6,4.7,5.8C4.3,6,4,6.3,3.7,6.6c0,0.1-0.1,0.1-0.1,0.2
	c-1,1.4-1.6,3-1.6,4.7s0.6,3.4,1.6,4.7C4.1,17.1,5,17.5,6,17.5c0.2,0,0.4,0,0.6-0.1C5.9,17.3,5.2,16.9,4.8,16.3z"/>
<path id="Path_2481" class="st3" d="M8.3,12.2c0.3-0.4,0.3-0.9,0-1.3c-0.2-0.3-0.2-0.6,0-0.9c0,0,0-0.1,0.1-0.1
	c0.1-0.1,0.2-0.3,0.2-0.4l0,0c0-0.1,0-0.1,0-0.2c0-0.1,0-0.3,0-0.4c0-0.4-0.4-0.6-0.7-0.6C7.4,8.3,7.3,8.6,7.4,9
	c0.1,0.2,0.1,0.4,0.1,0.6c0,0.3-0.2,0.5-0.5,0.5l0,0l0,0c-0.2,0-0.3,0-0.5,0c-0.3,0-0.7-0.2-1-0.1c-0.2,0.1-0.3,0.2-0.3,0.4
	c0,0.1,0,0.3,0.1,0.4c0.2,0.5,1,0.1,1.3,0C6.8,10.8,7,11,7,11.2v0.1c-0.1,0.4-0.6,0.4-0.9,0.4c-0.3,0-0.5,0.1-0.7,0.3
	c-0.1,0.2-0.1,0.4,0,0.6c0,0.2,0.2,0.3,0.4,0.2c0.1,0,0.1-0.1,0.2-0.1s0.3-0.1,0.4-0.2c0.3-0.1,0.8,0,0.8,0.4c0,0.5-0.4,0.9-0.3,1.3
	c0.1,0.4,0.6,0.9,0.9,0.4c0.1-0.1,0.1-0.3,0-0.4c0-0.1-0.1-0.3-0.1-0.4c0-0.4,0.2-0.6,0.5-0.7l0,0C8.1,12.8,8.1,12.5,8.3,12.2z"/>
<path id="Path_2482" class="st2" d="M10.9,20.4v-6.6c0-1-0.8-1.8-1.9-1.8H8.4c-0.2,0-0.3-0.1-0.3-0.3c0-0.1,0-0.2,0.1-0.2
	c-0.1-0.1-0.1-0.1-0.1-0.2l0,0c0-0.2,0.1-0.3,0.3-0.3H9c0.7-0.1,1.2-0.7,1.2-1.4V2.7h0.6v6.8c0,0.8-0.5,1.6-1.3,1.9
	c1.1,0.2,2,1.2,2,2.4v6.6C11.5,20.4,10.9,20.4,10.9,20.4z"/>
<path id="Path_2476-2" class="st1" d="M16.2,13.8c0,0.1-0.1,0.3-0.1,0.4c0,0.1,0,0.3,0,0.4c0.3,0.5,0.8,0,0.9-0.4
	c0.1-0.5-0.3-0.9-0.3-1.3c0-0.4,0.5-0.5,0.8-0.4c0.2,0.1,0.3,0.2,0.4,0.3s0.3,0.2,0.5,0.1c0.1,0,0.1-0.1,0.1-0.2
	c0.1-0.2,0.1-0.4,0-0.6c-0.1-0.3-0.3-0.4-0.6-0.4c-0.3,0-0.8,0-0.9-0.4c-0.1-0.2,0-0.4,0.2-0.4l0,0h0.1c0.4,0,1.1,0.5,1.3,0
	c0.1-0.1,0.1-0.3,0.1-0.4c0-0.2-0.1-0.3-0.2-0.4c-0.3-0.2-0.7,0.1-1,0.1c-0.2,0-0.3,0-0.5,0c-0.3,0-0.5-0.2-0.6-0.5l0,0
	c0-0.2,0.1-0.4,0.1-0.6c0.1-0.4,0-0.7-0.5-0.7c-0.4,0-0.7,0.2-0.7,0.6c0,0.1,0,0.3,0,0.4c0,0.1,0,0.1,0,0.2l0,0
	c-0.6-1.2-0.2-2.7,1-3.5c1.2-0.8,2.9-0.6,3.8,0.6c0.2,0,0.3,0,0.3,0.1c1,1.4,1.6,3,1.6,4.7s-0.6,3.4-1.6,4.7c-0.9,1.3-2.6,1.6-4,0.8
	c-1.3-0.8-1.7-2.5-0.9-3.8l0,0v-0.1l0,0l0,0l0,0C16.1,13.2,16.3,13.4,16.2,13.8z"/>
<path id="Path_2478-2" class="st2" d="M19.2,16.3c1-1.4,1.6-3,1.6-4.7c0-1-0.2-2-0.6-2.9c-0.2-0.5-0.5-1-0.8-1.5
	c-0.3-0.4-0.6-0.7-0.9-0.9c-0.2-0.2-0.8-0.6-1.1-0.6c0.6-0.1,1.3-0.1,1.9,0.2c0.4,0.2,0.7,0.4,1,0.7c0,0.1,0.1,0.1,0.1,0.2
	c1,1.4,1.6,3,1.6,4.7s-0.6,3.4-1.6,4.7C19.9,17,19,17.4,18,17.4c-0.2,0-0.4,0-0.6-0.1C18.1,17.3,18.8,16.9,19.2,16.3z"/>
<path id="Path_2481-2" class="st3" d="M15.7,12.2c-0.3-0.4-0.3-0.9,0-1.3c0.2-0.3,0.2-0.6,0-0.9c0,0,0-0.1-0.1-0.1
	c-0.1-0.1-0.2-0.3-0.2-0.4l0,0c0-0.1,0-0.1,0-0.2c0-0.1,0-0.3,0-0.4c0-0.4,0.4-0.6,0.7-0.6c0.5,0,0.6,0.3,0.5,0.7
	c-0.1,0.2-0.1,0.4-0.1,0.6c0,0.3,0.2,0.5,0.5,0.5l0,0l0,0c0.2,0,0.3,0,0.5,0c0.3,0,0.7-0.2,1-0.1c0.1,0.1,0.2,0.3,0.2,0.4
	c0,0.1,0,0.3-0.1,0.4c-0.2,0.5-1,0.1-1.3,0c-0.2,0-0.4,0.1-0.4,0.3v0.1c0.2,0.5,0.7,0.5,1,0.5s0.5,0.1,0.7,0.3
	c0.1,0.2,0.1,0.4,0,0.6c0,0.2-0.2,0.3-0.4,0.2c-0.1,0-0.1-0.1-0.2-0.1c-0.1-0.1-0.3-0.2-0.4-0.3c-0.3-0.1-0.8,0-0.8,0.4
	c0,0.5,0.4,0.9,0.3,1.3c-0.1,0.4-0.6,0.9-0.9,0.4c-0.1-0.1-0.1-0.3,0-0.4c0-0.1,0.1-0.3,0.1-0.4c0-0.4-0.2-0.6-0.5-0.7l0,0
	C15.9,12.8,15.9,12.5,15.7,12.2z"/>
<path id="Path_2482-2" class="st2" d="M13.1,20.4v-6.6c0-1,0.8-1.8,1.9-1.8h0.6c0.2,0,0.3-0.1,0.3-0.3c0-0.1,0-0.2-0.1-0.2
	c0.1-0.1,0.1-0.1,0.1-0.2l0,0c0-0.2-0.1-0.3-0.3-0.3H15c-0.7-0.1-1.2-0.7-1.2-1.4V2.7h-0.6v6.8c0,0.8,0.5,1.6,1.3,1.9
	c-1.1,0.2-2,1.2-2,2.4v6.6C12.5,20.4,13.1,20.4,13.1,20.4z"/>
<rect id="Rectangle_1288" class="st4" width="24" height="24"/>
</svg>
